/* XPM */
static char * collectible_xpm[] = {
"32 32 14 1",
" 	c #005F1A",
".	c #00980F",
"+	c #001A05",
"@	c #000000",
"#	c #FFCC66",
"$	c #FFAE4C",
"%	c #FFC054",
"&	c #007916",
"*	c #FFCC99",
"=	c #FF9933",
"-	c #FFCC33",
";	c #663300",
">	c #004F1C",
",	c #CC6633",
" .+@@##$%%+&&.$#*&&&&.@&&&##.   ",
".&@@@&&.%%=&&#$#*+&&&&@&&+#.&.  ",
"&&.@@@&&.%=&&+$.*-+&&+@++##&@&  ",
"&&&@@+@&&%=#&#$&.-#+&@@@.##&@& .",
"&&+@@@+@&%+##$#&&.##&@@.&##&@& &",
"&+@..@@+%%=+#$##&&##&@.&&##+@+.&",
"+@@&&@@@+%..++##*&.#+@&%$#.@@@&&",
"@@@@&..@@.&&#.##*-#.#.&%$#&.+@&+",
".@@+&&&@@&&##&.+*-###&$%+.&&@@+@",
"&.@@@&&@@&&+#&&.++++##$+@&@&@@@@",
"&&@@+##..&=##&&&.-###++@@@@&@@@@",
"&&@@@++&&%=##+&&&-####$%@@@&@@@@",
";&.@@.@@@%=##.>&+-..#&&&@&@@&@+@",
";&&@@&.$%%=##&.+*-&&.+++@+@@&@@@",
";&&.@&&.%%=##+&.*-&&&@@..@@@&@@@",
";&&&.+&&.%=##&&&*-+&&@.&&@+@&@@+",
";,&&&#+&&.=##&&&.-#++@&&&@@@&@.@",
"+,$#-##&&&=##&&&*.#&.@&&+@@@+@&@",
"@+$#+##+&&=##&&#*&.&&.++..@+@.&.",
".@++.##$&+=#&&##*&&@&#$%$#.@@&&&",
"@@@.&.#$+%=##$##++&@&#$%$##@@&&&",
"&@@&&&#$..=##$#+@@&@&#$%++..@+&@",
"@@@+&&.$&&=+#$+@.@+@&#$%%.&&@@@@",
"@@@@+&&$+&.@++@.&@@.&#$%%&&&@+@@",
"+@.@@+&$%&&@@@.&+@@&&#$%%&&+@@+@",
"@@&.@@&$.++@@@&+@@@@@+..%+.@@.@+",
"@@&&@@+$&.@..@+@..@++@&&%$&.@&@.",
"@.&&.@@.&&@&&.@.&&@@@@&&.$&&.&.&",
"@@@&&@@&&+@&&&@&&&@@@.&&&$+&&+&&",
"@@@@&@.&&@@+&&@&&+@@.&&++##&&@+&",
"@@@@@@&&+@..++@++@@@&&+@.##+&@&+",
"@+@++@++@@&&.@@@@....+@.&.#$+@+@"};
