/* XPM */
static char * collectible_xpm[] = {
"32 32 199 2",
"  	c #005F1A",
". 	c #00980F",
"+ 	c #004F1C",
"@ 	c #007916",
"# 	c #006913",
"$ 	c #561212",
"% 	c #CDE27E",
"& 	c #CCDF7D",
"* 	c #6D5530",
"= 	c #6C4F4C",
"- 	c #256E15",
"; 	c #9EAD59",
"> 	c #D6E885",
", 	c #D6E879",
"' 	c #D1E66C",
") 	c #7B6F34",
"! 	c #65463B",
"~ 	c #DCEC8B",
"{ 	c #D8EA7F",
"] 	c #CDE361",
"^ 	c #C5DF47",
"/ 	c #CAE24F",
"( 	c #6D8723",
"_ 	c #CEE45F",
": 	c #C1DC3C",
"< 	c #BAD82B",
"[ 	c #91BE45",
"} 	c #6C8422",
"| 	c #325713",
"1 	c #0E7616",
"2 	c #571917",
"3 	c #DCEC8A",
"4 	c #C4DE4B",
"5 	c #BBD92F",
"6 	c #B6D234",
"7 	c #9FAD3A",
"8 	c #3B3B18",
"9 	c #AAB864",
"0 	c #DAEB85",
"a 	c #D2E66E",
"b 	c #BFDB3D",
"c 	c #B1CD2A",
"d 	c #BAD53B",
"e 	c #ACC43E",
"f 	c #5F3B23",
"g 	c #365413",
"h 	c #BCD76F",
"i 	c #DBEB87",
"j 	c #D5E879",
"k 	c #C7E049",
"l 	c #BDDA33",
"m 	c #B9D72B",
"n 	c #B8D62A",
"o 	c #B1CD2B",
"p 	c #C1DA44",
"q 	c #B4CB4A",
"r 	c #258A10",
"s 	c #4D2714",
"t 	c #433416",
"u 	c #D5E877",
"v 	c #C7E04A",
"w 	c #B6D429",
"x 	c #363F19",
"y 	c #316515",
"z 	c #581C1B",
"A 	c #B9C270",
"B 	c #B5D229",
"C 	c #B7D237",
"D 	c #3D4516",
"E 	c #217015",
"F 	c #581A1A",
"G 	c #76AB21",
"H 	c #D9EA87",
"I 	c #D4E773",
"J 	c #C8E052",
"K 	c #BAD82C",
"L 	c #AF921D",
"M 	c #A87814",
"N 	c #A77713",
"O 	c #A47912",
"P 	c #AAC525",
"Q 	c #B0CB2A",
"R 	c #CAE250",
"S 	c #5D322A",
"T 	c #A3C359",
"U 	c #DAEB88",
"V 	c #C4DE43",
"W 	c #B8D12A",
"X 	c #B6AE26",
"Y 	c #C9721C",
"Z 	c #BD5513",
"` 	c #AF4C0E",
" .	c #A64C0C",
"..	c #9D9C1E",
"+.	c #AAC225",
"@.	c #B5D032",
"#.	c #C1DA43",
"$.	c #8BA332",
"%.	c #6B4E46",
"&.	c #8EB744",
"*.	c #D9EA82",
"=.	c #CEE465",
"-.	c #C2DD3F",
";.	c #B4C728",
">.	c #A84A0B",
",.	c #DF6A1E",
"'.	c #D06019",
").	c #B34F0F",
"!.	c #A3470C",
"~.	c #7F3504",
"{.	c #A1B31C",
"].	c #ADC827",
"^.	c #B0CC2A",
"/.	c #656C1E",
"(.	c #215819",
"_.	c #8EB844",
":.	c #CBE253",
"<.	c #BC5411",
"[.	c #B34F0E",
"}.	c #9F450B",
"|.	c #8F3E09",
"1.	c #A9C322",
"2.	c #ABC524",
"3.	c #798E34",
"4.	c #B1B221",
"5.	c #A64A0B",
"6.	c #A9490C",
"7.	c #99430A",
"8.	c #893B07",
"9.	c #732F03",
"0.	c #999C1D",
"a.	c #2D8310",
"b.	c #809C3E",
"c.	c #ADB120",
"d.	c #99430B",
"e.	c #8E3D08",
"f.	c #833705",
"g.	c #773104",
"h.	c #732E05",
"i.	c #2F6715",
"j.	c #7F9A41",
"k.	c #A7B01F",
"l.	c #7D3404",
"m.	c #7A3204",
"n.	c #722D05",
"o.	c #692A05",
"p.	c #969B1D",
"q.	c #375F14",
"r.	c #CADC7D",
"s.	c #CAE252",
"t.	c #A8B721",
"u.	c #885F0F",
"v.	c #7C3403",
"w.	c #7D3403",
"x.	c #783103",
"y.	c #722D06",
"z.	c #6C2B05",
"A.	c #6E590F",
"B.	c #97A41F",
"C.	c #ACC727",
"D.	c #B6D135",
"E.	c #B7CE47",
"F.	c #266D15",
"G.	c #3E5714",
"H.	c #5A8417",
"I.	c #C7DF4F",
"J.	c #B4D028",
"K.	c #9FB21E",
"L.	c #712F04",
"M.	c #712E04",
"N.	c #712E05",
"O.	c #702E06",
"P.	c #552303",
"Q.	c #9CB21D",
"R.	c #B2CB31",
"S.	c #CAE251",
"T.	c #243B03",
"U.	c #48530E",
"V.	c #C3D950",
"W.	c #B9D72A",
"X.	c #B3CF28",
"Y.	c #A2B520",
"Z.	c #9FB520",
"`.	c #A7C021",
" +	c #B7D136",
".+	c #3D300A",
"++	c #737130",
"@+	c #ADC53D",
"#+	c #C3DD43",
"$+	c #BED642",
"%+	c #BFD843",
"&+	c #9DAA38",
"*+	c #767928",
"=+	c #7F7B4E",
"-+	c #A4BC3F",
";+	c #A3B93E",
">+	c #A2B73D",
",+	c #364C17",
"'+	c #366115",
"  . +     . .       + @ @ .       @ @ @ @ .   @ @ @     .       ",
". @       @ @ .       @ @ #       + @ @ @ @   @ @ +   . @ .     ",
"@ @ .     # @ @ .   # @ @ +   .     + @ @ +   + +     @ # @     ",
"@ @ @     + # @ @   # # @     @ .     + @       .     @ # @   . ",
"@ @ +       + # @   + # #   $ $ $ $     @     . @     @ # @   @ ",
"@ +   . .     + #     + $ $ $ % & * $ = -   . @ @     + # + . @ ",
"+     @ @       +   . $ $ ; > , ' ) $ ! $   @ # #   .   #   @ @ ",
"      # @ . .     . @ $ $ ~ { ] ^ ^ / ( $ . @ # #   @ . +   @ + ",
".     + @ @ @     @ @ $ $ ~ _ : < < / ( $ @ # # + . @ @     +   ",
"@ .     # @ @     @ - $ [ ~ _ : < < / } $ | # +   @ # @         ",
"@ @     + # # . . 1 2 $ $ 3 4 5 < < 6 7 $ $ 8     # # @       # ",
"@ @       + + @ @ $ $ 9 0 a b < < < c d e f $ .   # # @     # # ",
"# @ .     .   # g $ h i j k l < m n c o p q $ @   @ # # @   + # ",
"# @ @     @ r s t $ h u v < < < w o o o p q $ x   + # # @     # ",
"# @ @ .   @ y z $ A 3 u v < < B c o o o o C $ $ $ D # # @     # ",
"# @ @ @ . + E F G H I J l K L M N O P Q o C R $ $ $ + # @     + ",
"# # @ @ @   $ S T U ' V W X Y Z `  ...+.Q @.#.$.%.$   # @   .   ",
"+ # # # #   $ &.3 *.=.-.;.>.,.'.).!.~.{.].^.o R /.$   # +   @   ",
"  + # # + (.$ _.~ :.: < ;.>.<.[.}.|.~.{.1.2.o R /.$   +   . @ . ",
".   + + . (.$ 3.~ :.: 4.5.6.6.7.8.~.~.9.0.2.o R $ $ .     @ @ @ ",
"#     . @ a.$ b.3 :.: c.d.d.d.e.f.~.g.h.0.2.o R ( $ @     @ @ @ ",
"@     @ @ i.$ j.3 :.: k.8.8.8.f.l.m.n.o.p.2.o R $ $ . .   + @ # ",
"#     + @ q.$ $ r.s.: t.u.v.w.w.x.y.z.A.B.C.D.E.$ $ @ @   # # # ",
"#       + F.G.$ H.I.: J.K.L.M.M.N.O.P.Q.1.R.S.T.$ @ @ @   + # # ",
"+   .     + @ $ U.V.: W.X.Y.Y.Y.Y.Y.Z.`.]. +S..+$ @ @ +     + # ",
"    @ .     @   $ ++@+V #+$+$+$+$+$+$+$+%+&+*+$   + .     .   + ",
"    @ @     +   @ $ =+-+-+-+-+;+>+>+>+>+>+$ $ @     @ .   @   . ",
"  . @ @ .     . @ @ $ $ $ $ $ $ $ $ $ $ $ $ @ @ .   @ @ . @ . @ ",
"  # # @ @     @ @ +   @ @ @ ,+'+'+@       . @ @ @   + @ @ + @ @ ",
"  # # # @   . @ @     + @ @   @ @ +     . @ @ + +     @ @   + @ ",
"  # # # #   @ @ +   . . + +   + +       @ @ +   .     + @   @ + ",
"  + # + +   + +     @ @ .         . . . . +   . @ .     +   +   "};
