/* XPM */
static char * end_xpm[] = {
"32 32 249 2",
"  	c #005F1A",
". 	c #00980F",
"+ 	c #004F1C",
"@ 	c #007916",
"# 	c #015F1A",
"$ 	c #045E1A",
"% 	c #097716",
"& 	c #0B7716",
"* 	c #0B6713",
"= 	c #0C5D1A",
"- 	c #085E1A",
"; 	c #044F1C",
"> 	c #017916",
", 	c #006913",
"' 	c #05960F",
") 	c #165A19",
"! 	c #255C11",
"~ 	c #2F6013",
"{ 	c #345A12",
"] 	c #363916",
"^ 	c #374413",
"/ 	c #366F0E",
"( 	c #314A15",
"_ 	c #275117",
": 	c #194A1A",
"< 	c #077816",
"[ 	c #016913",
"} 	c #206E14",
"| 	c #344714",
"1 	c #413A0E",
"2 	c #48270D",
"3 	c #4A240D",
"4 	c #4B190D",
"5 	c #4B170D",
"6 	c #4B1C0C",
"7 	c #4A2D0C",
"8 	c #46280F",
"9 	c #3E3A12",
"0 	c #2D4017",
"a 	c #167215",
"b 	c #035F1A",
"c 	c #0B4D1B",
"d 	c #3B5011",
"e 	c #47250E",
"f 	c #4B110D",
"g 	c #4D0E0C",
"h 	c #4D0D0C",
"i 	c #4D0C0C",
"j 	c #4C120C",
"k 	c #48240E",
"l 	c #395311",
"m 	c #1E5718",
"n 	c #055E1A",
"o 	c #205618",
"p 	c #3B3414",
"q 	c #49200D",
"r 	c #4C0F0C",
"s 	c #4A230D",
"t 	c #3B3E12",
"u 	c #1E8C0F",
"v 	c #037816",
"w 	c #135B19",
"x 	c #344715",
"y 	c #48240F",
"z 	c #4C0E0C",
"A 	c #4A1D0D",
"B 	c #3A5211",
"C 	c #1C6112",
"D 	c #046813",
"E 	c #22880E",
"F 	c #41570D",
"G 	c #4C120D",
"H 	c #4D100C",
"I 	c #492A0D",
"J 	c #374B10",
"K 	c #176412",
"L 	c #025F1A",
"M 	c #087716",
"N 	c #2F6113",
"O 	c #482C0D",
"P 	c #4D0F0C",
"Q 	c #4C110C",
"R 	c #4C100C",
"S 	c #472C0D",
"T 	c #313E16",
"U 	c #13920F",
"V 	c #0F6613",
"W 	c #395310",
"X 	c #4C1A0C",
"Y 	c #432F10",
"Z 	c #2D6313",
"` 	c #116513",
" .	c #1A491A",
"..	c #413B0E",
"+.	c #4C130C",
"@.	c #4C140C",
"#.	c #047816",
"$.	c #045F1A",
"%.	c #265317",
"&.	c #47210F",
"*.	c #49200E",
"=.	c #4C1D0C",
"-.	c #4A200D",
";.	c #354E10",
">.	c #117515",
",.	c #304B15",
"'.	c #4A2E0C",
").	c #48230E",
"!.	c #4A280D",
"~.	c #4C190C",
"{.	c #3E410F",
"].	c #027916",
"^.	c #0B5E1A",
"/.	c #364514",
"(.	c #4A300C",
"_.	c #471F0F",
":.	c #44340E",
"<.	c #265B11",
"[.	c #057816",
"}.	c #3B3E13",
"|.	c #4C160C",
"1.	c #4C170C",
"2.	c #4D110C",
"3.	c #4C180C",
"4.	c #47260E",
"5.	c #462D0D",
"6.	c #2B5811",
"7.	c #077716",
"8.	c #1D6F15",
"9.	c #41560D",
"0.	c #4A1B0D",
"a.	c #4B260C",
"b.	c #481F0F",
"c.	c #2D5611",
"d.	c #067816",
"e.	c #286814",
"f.	c #46360E",
"g.	c #4C0C0C",
"h.	c #4B0C0C",
"i.	c #4A0C0C",
"j.	c #4A100C",
"k.	c #4A1D0C",
"l.	c #48220E",
"m.	c #2E5511",
"n.	c #086713",
"o.	c #2F5511",
"p.	c #48280D",
"q.	c #470C0C",
"r.	c #3D0A0A",
"s.	c #360909",
"t.	c #3B0B0A",
"u.	c #43170B",
"v.	c #4B0E0C",
"w.	c #074E1C",
"x.	c #0A6713",
"y.	c #335010",
"z.	c #4A190E",
"A.	c #4C150C",
"B.	c #4B1A0C",
"C.	c #49150C",
"D.	c #3C0A0A",
"E.	c #250808",
"F.	c #150707",
"G.	c #1E0808",
"H.	c #360D0A",
"I.	c #480C0B",
"J.	c #2E3F17",
"K.	c #075E1A",
"L.	c #353A15",
"M.	c #4A290C",
"N.	c #461B0B",
"O.	c #320A09",
"P.	c #130707",
"Q.	c #080707",
"R.	c #0D0707",
"S.	c #290B08",
"T.	c #440C0B",
"U.	c #49330C",
"V.	c #2E4C15",
"W.	c #0C5D19",
"X.	c #376D0D",
"Y.	c #4B1D0D",
"Z.	c #4A180E",
"`.	c #47120C",
" +	c #1B0707",
".+	c #100707",
"++	c #180707",
"@+	c #310D09",
"#+	c #470C0B",
"$+	c #49280D",
"%+	c #0D5D19",
"&+	c #385511",
"*+	c #4C1B0C",
"=+	c #4B180D",
"-+	c #420B0B",
";+	c #340909",
">+	c #2E0909",
",+	c #400E0B",
"'+	c #4A0D0C",
")+	c #2E7B0E",
"!+	c #393614",
"~+	c #470B0B",
"{+	c #450C0B",
"]+	c #480C0C",
"^+	c #490F0C",
"/+	c #49290D",
"(+	c #2D6213",
"_+	c #0F5C19",
":+	c #3A3F13",
"<+	c #2A6514",
"[+	c #065E1A",
"}+	c #15910F",
"|+	c #3C3C12",
"1+	c #234619",
"2+	c #035E1A",
"3+	c #1A7115",
"4+	c #3F5C0D",
"5+	c #42530D",
"6+	c #1A5919",
"7+	c #1C7015",
"8+	c #404710",
"9+	c #4B150D",
"0+	c #4C200C",
"a+	c #491B0E",
"b+	c #3E4A10",
"c+	c #12930F",
"d+	c #02970F",
"e+	c #3F4910",
"f+	c #0D7516",
"g+	c #146412",
"h+	c #4B160D",
"i+	c #4B1A0D",
"j+	c #333C16",
"k+	c #0D6613",
"l+	c #4D120C",
"m+	c #4A2B0C",
"n+	c #285117",
"o+	c #315110",
"p+	c #4A1E0C",
"q+	c #452C10",
"r+	c #1D5718",
"s+	c #014F1C",
"t+	c #066813",
"u+	c #2C4118",
"v+	c #491A0E",
"w+	c #491F0D",
"x+	c #4B290C",
"y+	c #40590D",
"z+	c #145B19",
"  . +     . .       + @ @ .       @ @ @ @ .   @ @ @     .       ",
". @       @ @ .   # $ % & * = = - ; > @ @ @   @ @ +   . @ .     ",
"@ @ .     , @ @ ' ) ! ~ { ] ^ / ( _ : < > +   + +     @ , @     ",
"@ @ @     + [ & } | 1 2 3 4 5 6 7 8 9 0 a b     .     @ , @   . ",
"@ @ +       c ! d e f g h i i i i g j k l m n . @     @ , @   @ ",
"@ +   . . n o p q r h i i i i i i i i h s t u v @     + , + . @ ",
"+     @ > w x y z i g h i i i i i i i i i A B C D   .   ,   @ @ ",
"      , v E F G i g h h i i i i i h h i i H I J K L @ . +   @ + ",
".     + M N O h i h P h i h H z r g Q R i i P S T U > @     +   ",
"@ .     V W X i i h g i i i i h h h z G P i i R Y Z ` >         ",
"@ @   #  ...R i i h i i i i i i i h h +.5 h i i @...! #.      , ",
"@ @   $.%.&.i i i i i i i i i i i i i R *.=.h h i -.;.>.    , , ",
", @ . - ,.'.i i i i i i i i i i i i i H ).!.r h i ~.{.C ].  + , ",
", @ @ ^./.6 i i i h i i i h X h i i i h (._.z i i z :.<.[.    , ",
", @ @ U }.|.i i i g i i i i 1.2.i i i i 3.4.@.i h g 5.6.7.    , ",
", @ ].8.9.z i i i r i i i i R h i i i i h 0.a.h i h b.c.7.    + ",
", , d.e.f.h i i i 3.h i i i g i P i g.h.i.j.k.h i h l.m.7.  .   ",
"+ , n.o.p.h i i h @.h i i i i h Q R q.r.s.t.u.v.i i *.m.w.  @   ",
"  + x.y.z.i i i h A.h i i i i h B.C.D.E.F.G.H.I.i h *.J.K.. @ . ",
".   c L.M.i i i g R h h i i i g -.N.O.P.Q.R.S.T.g.h U.V.K.@ @ @ ",
",   W.X.Y.i i i h +.h h i i i h Z.`.s. +.+++@+#+i h $+V.K.@ @ @ ",
"@   %+&+B.i i i 2.*+h h i i i h =+j.-+;+>+;+,+'+i i U.)+K.+ @ , ",
",   W.!+~.i i i P A.h h i i i i @.z h.~+{+]+^+h i h /+(+K., , , ",
",   _+:+Q i i i h +.g P i i i h h g g i g h g i i h O <+[++ , , ",
"+ # }+|+j i i i i j g R Q i g h h r g h j g h i i g f.1+2+  + , ",
"  L 3+4+Q i i i h r z R 4 @.+.h h i r |.B.h h i i z 5+6+# .   + ",
"  b 7+8+Q i i i i ~.9+|.0+R i i P A.5 a+z.g i i i Q b+c+  @   . ",
"  d+3+e+3.i i g h @.0.|.g i i i h g g j 4 g i i i @.l f+. @ . @ ",
"  [ g+d |.i i g P z 4 j i i i i i i i h h+2.i i i i+j+% @ + @ @ ",
"  , k+J 6 i i g l+h +.g i i i i i i i Q m+P i i i ).n+#.@   + @ ",
"  , n.o+p+i i P G g @.g i i i i i i i R s P i i g q+r+s+@   @ + ",
"  + t+u+v+i i h w+5 h i i i i i i i i P x+h i i H y+z+  +   +   "};
