/* XPM */
static char * plant_xpm[] = {
"32 32 18 1",
" 	c #005F1A",
".	c #00980F",
"+	c #004F1C",
"@	c #007916",
"#	c #006913",
"$	c #45283C",
"%	c #C1E58F",
"&	c #92C970",
"*	c #507454",
"=	c #39260E",
"-	c #E6740C",
";	c #A83811",
">	c #CF4C06",
",	c #F9DB9D",
"'	c #FF9D1C",
")	c #3A0808",
"!	c #732000",
"~	c #222034",
" .+  ..   +@@.   @@@@. @@@  .   ",
".@   @@.   @@#   +@@@@ @@+ .@.  ",
"@@.  #@@. #@@+ .  +@@+ ++  @#@  ",
"@@@  +#@@ ##@  @.  +@   .  @#@ .",
"@@+   +#@ +##  @@.  @  .@  @#@ @",
"@+ ..  +#  +## #@@  @ .@@  +#+.@",
"+  @@   + .$$$ ##@$$$ @## . # @@",
"   #@..  .$%%%$##$%%%$$## @.+ @+",
".  +@@@ $$&&%%%$#$*&&%&$+.@@  + ",
"@.  #@@$&&&&&&&*$*&&&&&$ @#@    ",
"@@  +##$&&&&&&***&&&&&$  ##@   #",
"@@   ++@$&&$$$$$=$$*$$.. ##@  ##",
"#@.  . ##$$ $--;=;-$ @@@ @##@ +#",
"#@@  @.++  $>,--;---$+++ +##@  #",
"#@@. @@.  $-,,,'-''--$ .. ##@  #",
"#@@@.+@@. $-,,''''''-$.@@ +#@  +",
"##@@@ +@@$---''''''''>$@@  #@ . ",
"+####  @@$-,--''''--,>$@+  #+ @ ",
" +##+  +@$--))-''-)),>$+.. + .@.",
". ++.   @$-),,)--),,)>$ @@.  @@@",
"#  .@.  +$-),,)--),,)>$ @@@  @@@",
"@  @@@  .$''!!----!!-'$ ++.. +@#",
"#  +@@. @$''--------''$  .@@ ###",
"#   +@@ +;'''------''';  @@@ +##",
"+ .  +@  ;-'''----'''-;  @@+  +#",
"  @.  @ .;-'''----'''-;. +.  . +",
"  @@  + @.;-''''''''';@@  @. @ .",
" .@@.  .~~;--'''''''-;~~. @@.@.@",
" ##@@ ~~~~$;---$$---;$~~~~+@@+@@",
" ###@ ~~~~~$--$~~$--$~~~~~ @@ +@",
" #### @@~~~~;-$~~$-;~~~~.  +@ @+",
" +#++ ++  @~~~~~~~~~~+ .@.  + + "};
