/* XPM */
static char *dummy[]={
"32 32 14 1",
". c None",
"l c #222034",
"d c #39260e",
"j c #3a0808",
"# c #45283c",
"c c #507454",
"k c #732000",
"b c #92c970",
"f c #a83811",
"a c #c1e58f",
"g c #cf4c06",
"e c #e6740c",
"h c #f9db9d",
"i c #ff9d1c",
"................................",
"................................",
"................................",
"................................",
"................................",
"................................",
"...........###....###...........",
"..........#aaa#..#aaa##.........",
"........##bbaaa#.#cbbab#........",
".......#bbbbbbbc#cbbbbb#........",
".......#bbbbbbcccbbbbb#.........",
"........#bb#####d##c##..........",
".........##.#eefdfe#............",
"...........#gheefeee#...........",
"..........#ehhhieiiee#..........",
"..........#ehhiiiiiie#..........",
".........#eeeiiiiiiiig#.........",
".........#eheeiiiieehg#.........",
".........#eejjeiiejjhg#.........",
".........#ejhhjeejhhjg#.........",
".........#ejhhjeejhhjg#.........",
".........#iikkeeeekkei#.........",
".........#iieeeeeeeeii#.........",
".........fiiieeeeeeiiif.........",
".........feiiieeeeiiief.........",
".........feiiieeeeiiief.........",
"..........feiiiiiiiiif..........",
"........llfeeiiiiiiiefll........",
"......llll#feee##eeef#llll......",
"......lllll#ee#ll#ee#lllll......",
"........llllfe#ll#efllll........",
"...........llllllllll..........."};
