/* XPM */
static char *dummy[]={
"32 32 5 1",
"a c #004f1c",
". c #005f1a",
"c c #006913",
"b c #007916",
"# c #00980f",
".#a..##...abb#...bbbb#.bbb..#...",
"#b...bb#...bbc...abbbb.bba.#b#..",
"bb#..cbb#.cbba.#..abba.aa..bcb..",
"bbb..acbb.ccb..b#..ab...#..bcb.#",
"bba...acb.acc..bb#..b..#b..bcb.b",
"ba.##..ac..acc.cbb..b.#bb..aca#b",
"a..bb...a.##aa.ccb#.a.bcc.#.c.bb",
"...cb##..#bb.#.cccc#.#bcc.b#a.ba",
"#..abbb..bbc.b#acccc.bcca#bb..a.",
"b#..cbb..bba.bb#aaaa.cca.bcb....",
"bb..acc##bc..bbb#....aa..ccb...c",
"bb...aabbcc..abbb....###.ccb..cc",
"cb#..#.ccaa..#aba.##.bbb.bccb.ac",
"cbb..b#aa....b#a..bb#aaa.accb..c",
"cbb#.bb#.....ab#..bbb..##.ccb..c",
"cbbb#abb#....bbb..abb.#bb.acb..a",
"ccbbb.abb#...bbb#..aa.bbb..cb.#.",
"acccc..bbb...bbbc#.b#.bba..ca.b.",
".acca..abb...bbccb#bb#aa##.a.#b#",
"#.aa#...ba..bbcccbb.bc..bb#..bbb",
"c..#b#..a...ccccaab.bc..bbb..bbb",
"b..bbb..##.cccca..b.bc..aa##.abc",
"c..abb#.bb.acca.#.a.bc...#bb.ccc",
"c...abb.ab#.aa.#b..#bc...bbb.acc",
"a.#..ab..bb...#ba..bbc...bba..ac",
"..b#..b.#aa...ba...cca##.a#..#.a",
"..bb..a.b#.##.a.##.aa.bb..b#.b.#",
".#bb#..#bb.bb#.#bb....bb#.bb#b#b",
".ccbb..bba.bbb.bbb...#bbb.abbabb",
".cccb.#bb..abb.bba..#bbaa..bb.ab",
".cccc.bba.##aa.aa...bba.#..ab.ba",
".acaa.aa..bb#....####a.#b#..a.a."};
